<svg width="149" height="128" viewBox="0 0 149 128" fill="none" xmlns="http://www.w3.org/2000/svg">
<path d="M50.14 5.60377C51.0766 3.90288 52.4361 2.48787 54.0796 1.50332C55.723 0.518778 57.5915 0 59.494 0C61.3966 0 63.2651 0.518778 64.9085 1.50332C66.552 2.48787 67.9115 3.90288 68.8481 5.60377L117.546 93.2301C121.688 100.686 116.487 110 108.18 110H10.8197C2.51295 110 -2.6877 100.686 1.45378 93.2301L50.14 5.60377ZM59.494 13.6709L12.8786 97.5693H106.11L59.494 13.6709Z" fill="#009E67"/>
<path d="M80.14 23.6038C81.0766 21.9029 82.4361 20.4879 84.0796 19.5033C85.723 18.5188 87.5915 18 89.494 18C91.3966 18 93.2651 18.5188 94.9085 19.5033C96.552 20.4879 97.9115 21.9029 98.8481 23.6038L147.546 111.23C151.688 118.686 146.487 128 138.18 128H40.8197C32.513 128 27.3123 118.686 31.4538 111.23L80.14 23.6038ZM89.494 31.6709L42.8786 115.569H136.11L89.494 31.6709Z" fill="white"/>
</svg>
